<svg width="80" height="80" viewBox="0 0 80 80" fill="none" xmlns="http://www.w3.org/2000/svg">
<path fill-rule="evenodd" clip-rule="evenodd" d="M41.8851 15.032C46.0451 15.304 49.8915 16.3728 53.4403 18.256C56.9763 20.1264 59.9971 22.5376 62.4898 25.4768C64.237 27.536 65.8771 30.0288 67.4211 32.9408C68.9897 35.8766 70.2344 38.9742 71.133 42.1792C72.2128 46.0777 72.8847 50.0779 73.1378 54.1152C73.4211 58.2736 73.5571 62.1344 73.5571 65.6832V74.3264H24.7491C24.5043 74.3264 24.3971 73.6752 24.4099 72.3904C24.4243 71.088 24.5059 70.0448 24.6659 69.2464C24.7619 68.6096 25.0195 67.7152 25.4131 66.5504C25.8195 65.3856 26.4691 63.976 27.4035 62.3104C27.8243 61.456 28.8275 60.224 30.4115 58.5984C32.0099 56.9728 33.8243 55.0768 35.8979 52.936C37.0899 51.7168 38.0099 50.1856 38.6883 48.3296C39.3651 46.488 39.6499 44.808 39.5411 43.2896C38.5682 44.0878 37.4877 44.745 36.3315 45.2416C30.7235 47.2464 26.6595 50.1584 24.1523 53.9648C23.9635 54.2096 23.3683 55.28 22.3651 57.1888C21.8371 58.192 21.3763 58.8832 21.0099 59.248C20.5091 59.7504 19.7779 60.0336 18.8291 60.088C17.3523 60.1568 16.2003 59.4512 15.3731 57.9344C14.2643 58.2592 13.2739 58.3952 12.3939 58.3408C10.9171 57.7856 9.84665 57.1888 9.18425 56.5536C7.82905 55.1984 6.96185 53.8576 6.54265 52.5024C6.12722 51.0862 5.92183 49.6167 5.93305 48.1408C5.93305 45.9184 7.30105 42.9792 10.0643 39.3216C13.2883 35.1216 15.0083 31.912 15.2115 29.7168C15.2115 28.768 15.3075 27.6992 15.4963 26.5056C15.6686 25.6545 16.0044 24.8449 16.4851 24.1216C16.8371 23.5936 17.0675 23.2288 17.1763 23.0384C17.2979 22.8352 17.5155 22.5376 17.8403 22.144C18.0707 21.8192 18.2723 21.576 18.4355 21.4128C18.5843 21.2368 18.7875 21.0064 19.0323 20.7088C19.3171 20.3696 19.6819 19.9776 20.1427 19.5168C18.7406 15.7025 18.1589 11.6353 18.4355 7.58081C23.6915 9.45121 28.1219 12.4048 31.6835 16.4288C32.5651 13.4336 34.2851 11.0096 36.8451 9.16641C38.9587 10.6432 40.6387 12.6064 41.8851 15.032Z" fill="#1F1A17"/>
<path fill-rule="evenodd" clip-rule="evenodd" d="M68.7616 71.5087C68.7344 71.5087 68.7616 70.7903 68.8288 69.3551C68.9104 67.9055 68.9504 66.3471 68.9504 64.6815C68.9776 61.3759 68.9776 57.9615 68.9504 54.4255C68.9181 50.8537 68.4403 47.2998 67.528 43.8463C66.6208 40.4591 65.632 37.5743 64.5488 35.1759C63.464 32.7791 62.2864 30.7199 61.0128 28.9711C59.1168 26.1135 56.5152 23.6879 53.2368 21.7103C49.9584 19.7199 46.5328 18.4191 42.9552 17.8095C43.1984 19.1103 43.3072 20.3839 43.28 21.6287C43.2256 22.5775 42.7792 23.0527 41.9248 23.0527C40.9488 23.0527 40.5168 22.5775 40.6128 21.6287C40.6928 18.1343 39.4464 15.1407 36.8848 12.6623C34.8816 14.7743 33.784 17.2271 33.6352 20.0303C33.5808 20.9663 33.1072 21.3727 32.1984 21.2623C31.3584 21.2367 30.9392 20.7503 30.9392 19.7999C30.9392 19.7999 30.9664 19.6927 31.0064 19.4751C29.9232 19.8271 28.7856 20.3151 27.5936 20.9519C26.8352 21.4799 26.2112 21.3455 25.7376 20.5599C25.2624 19.7599 25.4656 19.1359 26.3744 18.6895C27.5104 18.1071 28.3648 17.6735 28.9472 17.3759C26.6963 15.067 24.0662 13.161 21.1712 11.7407C21.4786 15.3878 22.5059 18.9378 24.1936 22.1855C24.64 22.8623 24.5312 23.4719 23.8672 23.9999C23.1232 24.5823 22.4992 24.5007 21.9984 23.7279C21.7092 23.265 21.4469 22.7858 21.2128 22.2927C20.6576 22.8479 20.2784 23.2687 20.1024 23.5247C19.912 23.7695 19.5872 24.2975 19.1264 25.1103C18.6656 25.9375 18.3264 26.6143 18.1104 27.1423C17.88 27.8063 17.7712 28.3343 17.8128 28.7551C17.8528 29.1615 17.8928 29.6079 17.92 30.1231C17.6733 31.6814 17.1261 33.1768 16.3088 34.5263C15.2667 36.2211 14.201 37.9013 13.112 39.5663C12.177 41.0049 11.2238 42.4317 10.2528 43.8463C9.58881 44.8079 9.08801 46.0127 8.74881 47.5039C8.50561 48.3983 8.50561 49.4943 8.74881 50.7679C8.97921 52.0559 9.50881 53.0575 10.2944 53.7759C11.5136 55.0079 12.6912 55.5775 13.8304 55.4831C14.1952 55.4831 14.696 55.3343 15.3184 55.0351C15.9424 54.7503 16.4176 54.1951 16.7696 53.3695C17.4464 51.8655 18.016 51.1071 18.4768 51.1071C19.1264 51.1071 19.4928 51.4863 19.5456 52.2175C19.5456 52.3807 19.3296 53.0447 18.9104 54.2095C18.6656 54.7375 18.3536 55.2927 17.9616 55.8751C17.4464 56.5663 17.2304 56.8511 17.2848 56.7423C17.704 58.2591 18.408 58.5183 19.384 57.5423C19.6688 57.2575 20.008 56.7023 20.3728 55.9167C20.752 55.1167 21.3344 54.0463 22.12 52.7055C23.0544 51.1343 24.0432 49.8735 25.1008 48.8847C26.1568 47.9087 27.0912 47.1103 27.9168 46.5151C28.392 46.1631 28.9744 45.7695 29.6656 45.3231C30.3568 44.8623 31.2784 44.4015 32.4432 43.9279C33.3648 43.5615 34.3936 43.1007 35.5184 42.5583C36.6432 42.0159 37.6448 41.3263 38.5104 40.4735C39.7312 39.2815 40.6656 37.8175 41.3296 36.0703C41.6816 35.0943 41.8032 33.8895 41.7216 32.4543C41.4912 31.5583 41.9392 31.1119 43.0768 31.1119C43.9296 31.1119 44.4048 31.5455 44.5136 32.4255C44.5136 35.4063 43.6592 38.1295 41.9664 40.5951C42.5216 42.2879 42.6704 44.1439 42.3984 46.1487C42.1696 47.7615 41.6 49.4943 40.7184 51.3375C39.8256 53.1663 38.0368 55.2111 35.3424 57.4607C29.8544 62.0127 27.2688 66.6991 27.5664 71.5087H47.0464H68.7616ZM14.9408 47.3807C14.168 47.8559 13.7088 48.4927 13.5456 49.2911C13.5728 50.1583 13.1664 50.6335 12.3264 50.7151C11.392 50.8223 10.9184 50.4303 10.8896 49.5215C10.9984 47.7743 11.7696 46.3935 13.2336 45.3631C13.9248 44.8079 14.5616 44.8479 15.144 45.5119C15.7264 46.2303 15.6592 46.8511 14.9408 47.3807ZM26.7264 28.4575C27.0656 28.9855 27.2 29.5407 27.1184 30.1231C26.8624 31.8159 25.9136 32.5215 24.3024 32.2639C23.8852 32.2036 23.4894 32.0409 23.1504 31.7903C23.0544 31.9119 22.8928 32.2095 22.6752 32.6559C22.3904 33.5103 21.8352 33.7951 21.0096 33.5359C20.1968 33.2127 19.872 32.6159 20.0608 31.7487C21.2528 28.7007 23.4064 26.6143 26.5232 25.4767C27.4304 25.2047 28.0272 25.4767 28.3104 26.2623C28.6368 27.1167 28.392 27.6991 27.5936 28.0095C27.4532 28.09 27.3084 28.1626 27.16 28.2271C27.024 28.2943 26.888 28.3759 26.7264 28.4575Z" fill="url(#paint0_linear_749_992)"/>
<defs>
<linearGradient id="paint0_linear_749_992" x1="34.248" y1="59.7535" x2="124.226" y2="59.7535" gradientUnits="userSpaceOnUse">
<stop stop-color="#5D5D5D"/>
<stop offset="0.0001" stop-color="#6B6969" stop-opacity="0.82"/>
<stop offset="0.418269" stop-opacity="0.732377"/>
<stop offset="1"/>
</linearGradient>
</defs>
</svg>
